<svg width="1200" height="760" viewBox="0 0 1200 760" fill="none" xmlns="http://www.w3.org/2000/svg">
  <rect width="1200" height="760" rx="42" fill="#07100D"/>
  <rect x="46" y="46" width="1108" height="668" rx="32" fill="#0E1B16" stroke="#244334"/>
  <rect x="96" y="96" width="1008" height="86" rx="24" fill="#101F1A"/>
  <text x="136" y="149" fill="#F8FAFC" font-family="Inter, Arial, sans-serif" font-size="32" font-weight="850">byNolo V2</text>
  <rect x="780" y="117" width="112" height="44" rx="22" fill="#153B29"/>
  <rect x="912" y="117" width="152" height="44" rx="22" fill="#22C55E"/>
  <text x="814" y="145" fill="#9CF2BC" font-family="Inter, Arial, sans-serif" font-size="15" font-weight="800">Hub</text>
  <text x="948" y="145" fill="#05110B" font-family="Inter, Arial, sans-serif" font-size="15" font-weight="900">Contact</text>
  <rect x="96" y="232" width="458" height="352" rx="30" fill="#101F1A" stroke="#2B5E42"/>
  <text x="134" y="306" fill="#9CF2BC" font-family="Inter, Arial, sans-serif" font-size="18" font-weight="800">FOUNDER STUDIO</text>
  <text x="134" y="372" fill="#F8FAFC" font-family="Inter, Arial, sans-serif" font-size="58" font-weight="900">Built with</text>
  <text x="134" y="436" fill="#F8FAFC" font-family="Inter, Arial, sans-serif" font-size="58" font-weight="900">real care.</text>
  <rect x="134" y="494" width="164" height="48" rx="24" fill="#22C55E"/>
  <rect x="318" y="494" width="164" height="48" rx="24" fill="#152A20" stroke="#2B5E42"/>
  <rect x="608" y="232" width="496" height="160" rx="30" fill="#101F1A" stroke="#2B5E42"/>
  <rect x="648" y="272" width="106" height="80" rx="18" fill="#173A28"/>
  <rect x="784" y="278" width="266" height="18" rx="9" fill="#DDFBEA"/>
  <rect x="784" y="318" width="204" height="14" rx="7" fill="#57896A"/>
  <rect x="608" y="424" width="232" height="160" rx="30" fill="#101F1A" stroke="#2B5E42"/>
  <rect x="872" y="424" width="232" height="160" rx="30" fill="#101F1A" stroke="#2B5E42"/>
</svg>
