<?xml version="1.0" encoding="UTF-8"?>
<svg xmlns="http://www.w3.org/2000/svg" version="1.2" baseProfile="tiny-ps" width="512" height="512" viewBox="0 0 512 512">
  <title>byNolo</title>
  <defs>
    <radialGradient id="bg_grad" cx="256" cy="256" r="256" gradientUnits="userSpaceOnUse">
      <stop offset="0" stop-color="#01382C"/>
      <stop offset="1" stop-color="#011A15"/>
    </radialGradient>
  </defs>
  <rect width="512" height="512" fill="#011A15"/>
  <circle cx="256" cy="256" r="256" fill="url(#bg_grad)"/>
  <line x1="88" y1="210" x2="135" y2="295" stroke="#00C853" stroke-opacity="0.3" stroke-width="0.75"/>
  <circle cx="88" cy="210" r="3.5" fill="#00C853" opacity="0.6"/>
  <circle cx="135" cy="295" r="4.5" fill="#00C853" opacity="0.55"/>
  <line x1="165" y1="88" x2="218" y2="85" stroke="#00C853" stroke-opacity="0.3" stroke-width="0.75"/>
  <circle cx="165" cy="88" r="3.5" fill="#00C853" opacity="0.6"/>
  <circle cx="218" cy="85" r="3.5" fill="#00C853" opacity="0.6"/>
  <line x1="345" y1="212" x2="380" y2="295" stroke="#00C853" stroke-opacity="0.3" stroke-width="0.75"/>
  <line x1="380" y1="295" x2="388" y2="340" stroke="#00C853" stroke-opacity="0.3" stroke-width="0.75"/>
  <circle cx="345" cy="212" r="3.5" fill="#00C853" opacity="0.6"/>
  <circle cx="380" cy="295" r="3.5" fill="#00C853" opacity="0.6"/>
  <circle cx="388" cy="340" r="3.5" fill="#00C853" opacity="0.6"/>
  <circle cx="225" cy="400" r="3.5" fill="#00C853" opacity="0.6"/>
  <circle cx="330" cy="105" r="2.5" fill="#00C853" opacity="0.2"/>
  <circle cx="355" cy="398" r="2" fill="#00C853" opacity="0.2"/>
  <circle cx="188" cy="470" r="1.5" fill="#00C853" opacity="0.2"/>
  <path d="m 163.79004,260.17871 q 0,10.73047 -4.32422,16.69629 -4.28418,5.92578 -12.29199,5.92578 -4.60449,0 -7.96778,-2.00195 -3.36328,-2.00196 -5.16503,-5.76563 h -0.0801 q 0,1.40137 -0.2002,3.84375 -0.16015,2.44239 -0.36035,3.12305 h -10.93066 q 0.32031,-3.72363 0.32031,-9.88965 v -49.52832 h 11.25098 v 16.57617 l -0.16016,7.04688 h 0.16016 q 3.80371,-8.32813 13.85351,-8.32813 7.6875,0 11.77149,5.84571 4.12402,5.80566 4.12402,16.45605 z m -11.73145,0 q 0,-7.36719 -2.16211,-10.93066 -2.16211,-3.56348 -6.68652,-3.56348 -4.56445,0 -6.9668,3.84375 -2.3623,3.80371 -2.3623,11.01074 0,6.88672 2.32226,10.73047 2.36231,3.84375 6.92676,3.84375 8.92871,0 8.92871,-14.93457 z m 26.42578,38.83789 q -4.04394,0 -7.08691,-0.52051 v -8.00781 q 2.12207,0.32031 3.88379,0.32031 2.40234,0 3.96387,-0.76074 1.60156,-0.76074 2.84277,-2.52246 1.28125,-1.76172 2.84277,-5.96582 l -17.13671,-42.88184 h 11.8916 l 6.80664,20.29981 q 1.60156,4.36426 4.04394,13.37305 l 1.00098,-3.80372 2.60254,-9.40917 6.40625,-20.45997 h 11.77148 l -17.13672,45.6045 q -3.44336,8.32812 -7.16699,11.53125 -3.68359,3.20312 -9.5293,3.20312 z M 252.59668,282 228.0127,238.55762 q 0.7207,6.32617 0.7207,10.16992 V 282 h -10.49024 v -56.41504 h 13.49317 l 24.94433,43.80274 q -0.7207,-6.0459 -0.7207,-11.01075 V 225.58496 H 266.4502 V 282 Z m 66.26465,-21.70117 q 0,10.53027 -5.84571,16.53613 -5.8457,5.96582 -16.17578,5.96582 -10.12988,0 -15.8955,-6.00586 -5.76563,-6.00586 -5.76563,-16.49609 0,-10.4502 5.76563,-16.41602 5.76562,-6.00586 16.13574,-6.00586 10.61035,0 16.17578,5.80567 5.60547,5.76562 5.60547,16.61621 z m -11.77149,0 q 0,-7.72754 -2.52246,-11.21094 -2.52246,-3.4834 -7.32715,-3.4834 -10.25,0 -10.25,14.69434 0,7.24707 2.48243,11.05078 2.52246,3.76367 7.24707,3.76367 10.37011,0 10.37011,-14.81445 z M 327.79004,282 v -59.41797 h 11.25098 V 282 Z m 63.94238,-21.70117 q 0,10.53027 -5.8457,16.53613 -5.8457,5.96582 -16.17578,5.96582 -10.12989,0 -15.89551,-6.00586 -5.76563,-6.00586 -5.76563,-16.49609 0,-10.4502 5.76563,-16.41602 5.76562,-6.00586 16.13574,-6.00586 10.61035,0 16.17578,5.80567 5.60547,5.76562 5.60547,16.61621 z m -11.77148,0 q 0,-7.72754 -2.52246,-11.21094 -2.52246,-3.4834 -7.32715,-3.4834 -10.25,0 -10.25,14.69434 0,7.24707 2.48242,11.05078 2.52246,3.76367 7.24707,3.76367 10.37012,0 10.37012,-14.81445 z" fill="#00C853" stroke="#00C853" stroke-width="5" stroke-linejoin="round" opacity="0.11"/>
  <path d="m 163.79004,260.17871 q 0,10.73047 -4.32422,16.69629 -4.28418,5.92578 -12.29199,5.92578 -4.60449,0 -7.96778,-2.00195 -3.36328,-2.00196 -5.16503,-5.76563 h -0.0801 q 0,1.40137 -0.2002,3.84375 -0.16015,2.44239 -0.36035,3.12305 h -10.93066 q 0.32031,-3.72363 0.32031,-9.88965 v -49.52832 h 11.25098 v 16.57617 l -0.16016,7.04688 h 0.16016 q 3.80371,-8.32813 13.85351,-8.32813 7.6875,0 11.77149,5.84571 4.12402,5.80566 4.12402,16.45605 z m -11.73145,0 q 0,-7.36719 -2.16211,-10.93066 -2.16211,-3.56348 -6.68652,-3.56348 -4.56445,0 -6.9668,3.84375 -2.3623,3.80371 -2.3623,11.01074 0,6.88672 2.32226,10.73047 2.36231,3.84375 6.92676,3.84375 8.92871,0 8.92871,-14.93457 z m 26.42578,38.83789 q -4.04394,0 -7.08691,-0.52051 v -8.00781 q 2.12207,0.32031 3.88379,0.32031 2.40234,0 3.96387,-0.76074 1.60156,-0.76074 2.84277,-2.52246 1.28125,-1.76172 2.84277,-5.96582 l -17.13671,-42.88184 h 11.8916 l 6.80664,20.29981 q 1.60156,4.36426 4.04394,13.37305 l 1.00098,-3.80372 2.60254,-9.40917 6.40625,-20.45997 h 11.77148 l -17.13672,45.6045 q -3.44336,8.32812 -7.16699,11.53125 -3.68359,3.20312 -9.5293,3.20312 z M 252.59668,282 228.0127,238.55762 q 0.7207,6.32617 0.7207,10.16992 V 282 h -10.49024 v -56.41504 h 13.49317 l 24.94433,43.80274 q -0.7207,-6.0459 -0.7207,-11.01075 V 225.58496 H 266.4502 V 282 Z m 66.26465,-21.70117 q 0,10.53027 -5.84571,16.53613 -5.8457,5.96582 -16.17578,5.96582 -10.12988,0 -15.8955,-6.00586 -5.76563,-6.00586 -5.76563,-16.49609 0,-10.4502 5.76563,-16.41602 5.76562,-6.00586 16.13574,-6.00586 10.61035,0 16.17578,5.80567 5.60547,5.76562 5.60547,16.61621 z m -11.77149,0 q 0,-7.72754 -2.52246,-11.21094 -2.52246,-3.4834 -7.32715,-3.4834 -10.25,0 -10.25,14.69434 0,7.24707 2.48243,11.05078 2.52246,3.76367 7.24707,3.76367 10.37011,0 10.37011,-14.81445 z M 327.79004,282 v -59.41797 h 11.25098 V 282 Z m 63.94238,-21.70117 q 0,10.53027 -5.8457,16.53613 -5.8457,5.96582 -16.17578,5.96582 -10.12989,0 -15.89551,-6.00586 -5.76563,-6.00586 -5.76563,-16.49609 0,-10.4502 5.76563,-16.41602 5.76562,-6.00586 16.13574,-6.00586 10.61035,0 16.17578,5.80567 5.60547,5.76562 5.60547,16.61621 z m -11.77148,0 q 0,-7.72754 -2.52246,-11.21094 -2.52246,-3.4834 -7.32715,-3.4834 -10.25,0 -10.25,14.69434 0,7.24707 2.48242,11.05078 2.52246,3.76367 7.24707,3.76367 10.37012,0 10.37012,-14.81445 z" fill="#00C853"/>
</svg>
